<?xml version="1.0" encoding="UTF-8"?> <svg xmlns="http://www.w3.org/2000/svg" viewBox="0 0 1596 532" width="1596" height="532"><defs><clipPath id="cp1"><path d="M-483 -456L2077 -456L2077 984L-483 984L-483 -456Z"></path></clipPath><clipPath id="cp2"><path d="M846.73 -184L1055.47 -184L1055.47 58.47L846.73 58.47L846.73 -184Z"></path></clipPath><clipPath id="cp3"><path d="M846.73 461.43L1055.47 461.43L1055.47 703.9L846.73 703.9L846.73 461.43Z"></path></clipPath><clipPath id="cp4"><path d="M1536.21 155.59L1778.68 155.59L1778.68 364.32L1536.21 364.32L1536.21 155.59Z"></path></clipPath><clipPath id="cp5"><path d="M-186.41 155.59L56.06 155.59L56.06 364.32L-186.41 364.32L-186.41 155.59Z"></path></clipPath><clipPath id="cp6"><path d="M459.02 202.85L580.25 202.85L580.25 307.21L459.02 307.21L459.02 202.85Z"></path></clipPath><clipPath id="cp7"><path d="M-483 -456L2077 -456L2077 984L-483 984L-483 -456Z"></path></clipPath><clipPath id="cp8"><path d="M56.06 259.95C56.06 371.23 146.26 461.43 257.54 461.43L257.54 461.43C368.81 461.43 459.02 371.23 459.02 259.95L459.02 259.95C459.02 247.63 457.91 235.57 455.79 223.85L455.79 223.85L412.42 255.82C412.46 257.19 412.47 258.57 412.47 259.95L412.47 259.95C412.47 345.39 342.97 414.89 257.54 414.89L257.54 414.89C172.11 414.89 102.6 345.39 102.6 259.95L102.6 259.95C102.6 174.52 172.11 105.01 257.54 105.01L257.54 105.01C289.91 105.01 320 115 344.89 132.05L344.89 132.05L384.07 103.17C349.49 75.22 305.47 58.47 257.54 58.47L257.54 58.47C146.26 58.47 56.06 148.68 56.06 259.95"></path></clipPath><clipPath id="cp9"><path d="M-483 -456L2077 -456L2077 984L-483 984L-483 -456Z"></path></clipPath></defs><style> tspan { white-space:pre } .shp0 { fill: #35ac57 } .shp1 { fill: #e5e534 } .shp2 { fill: #25aa58 } .shp3 { fill: #e3e435 } .shp4 { fill: #dde237 } .shp5 { fill: #2cab58 } .shp6 { fill: #d8e038 } .shp7 { fill: #2aab58 } .shp8 { fill: #28ab58 } .shp9 { fill: #f0e931 } .shp10 { fill: #f4eb2f } .shp11 { fill: #6ab951 } .shp12 { fill: #6fbb50 } .shp13 { fill: #f3eb30 } .shp14 { fill: #f2ea2f } .shp15 { fill: #60b652 } .shp16 { fill: #ede831 } .shp17 { fill: #f1ea30 } .shp18 { fill: #f1ea31 } .shp19 { fill: #59b453 } .shp20 { fill: #d5df39 } .shp21 { fill: #bbd641 } .shp22 { fill: #c6da3f } .shp23 { fill: #bed741 } .shp24 { fill: #cbdb3d } .shp25 { fill: #b3d343 } .shp26 { fill: #1c96d3 } .shp27 { fill: #2c8fcd } .shp28 { fill: #afd245 } .shp29 { fill: #b7d443 } .shp30 { fill: #a7cf48 } .shp31 { fill: #1b97d3 } .shp32 { fill: #d2de3a } .shp33 { fill: #cfdd3b } .shp34 { fill: #33ac57 } .shp35 { fill: #37ad57 } .shp36 { fill: #c2d83f } .shp37 { fill: #c8db3d } .shp38 { fill: #bdd741 } .shp39 { fill: #c3d93f } .shp40 { fill: #8ac36f } .shp41 { fill: #dae137 } .shp42 { fill: #eee831 } .shp43 { fill: #7ebf82 } .shp44 { fill: #39ad57 } .shp45 { fill: #2890ce } .shp46 { fill: #eae733 } .shp47 { fill: #1998d5 } .shp48 { fill: #1b98d4 } .shp49 { fill: #53b354 } .shp50 { fill: #cadb3d } .shp51 { fill: #d2de3b } .shp52 { fill: #2b90ce } .shp53 { fill: #2a90ce } .shp54 { fill: #c8db3e } .shp55 { fill: #55b4c2 } .shp56 { fill: #d3de3b } .shp57 { fill: #1ea2db } .shp58 { fill: #3caeda } .shp59 { fill: #e4e534 } .shp60 { fill: #c6da3e } .shp61 { fill: #ebe732 } .shp62 { fill: #1c95d2 } .shp63 { fill: #55b353 } .shp64 { fill: #2492d0 } .shp65 { fill: #d8e03a } .shp66 { fill: #e2e436 } .shp67 { fill: #65b8ad } .shp68 { fill: #dfe335 } .shp69 { fill: #f2ea30 } .shp70 { fill: #149bd7 } .shp71 { fill: #20a5de } .shp72 { fill: #a3ce4a } .shp73 { fill: #a6cf48 } .shp74 { fill: #99c953 } .shp75 { fill: #d0dd3b } .shp76 { fill: #ece833 } .shp77 { fill: #99c955 } .shp78 { fill: #2ba9e1 } .shp79 { fill: #93c75d } .shp80 { fill: #81c07c } .shp81 { fill: #efe931 } .shp82 { fill: #a6cf47 } .shp83 { fill: #9dca53 } .shp84 { fill: #90c565 } .shp85 { fill: #8fc562 } .shp86 { fill: #75bc93 } .shp87 { fill: #8dc468 } .shp88 { fill: #80c081 } .shp89 { fill: #7bbe87 } .shp90 { fill: #73bc95 } .shp91 { fill: #17a0da } .shp92 { fill: #1ca1db } .shp93 { fill: #7ec04e } .shp94 { fill: #6bbaa2 } .shp95 { fill: #3eae56 } .shp96 { fill: #60b7b2 } .shp97 { fill: #85c175 } .shp98 { fill: #94c84a } .shp99 { fill: #49b1cf } .shp100 { fill: #70bb9c } .shp101 { fill: #46b1d2 } .shp102 { fill: #f0ea30 } .shp103 { fill: #3aaddb } .shp104 { fill: #62b7b2 } .shp105 { fill: #7cbf88 } .shp106 { fill: #2fac57 } .shp107 { fill: #4eb2ca } .shp108 { fill: #3eaed7 } .shp109 { fill: #4bb1cd } .shp110 { fill: #72bc98 } .shp111 { fill: #3cadd8 } .shp112 { fill: #2592cf } .shp113 { fill: #30aadd } .shp114 { fill: #30abde } .shp115 { fill: #1a95d3 } .shp116 { fill: #23a5de } .shp117 { fill: #27a7de } .shp118 { fill: #159dd8 } .shp119 { fill: #e8e633 } .shp120 { fill: #1fa3dc } .shp121 { fill: #1da3dd } .shp122 { fill: #25a6de } .shp123 { fill: #179dd8 } .shp124 { fill: #189ed9 } .shp125 { fill: #169ed9 } .shp126 { fill: #199bd7 } .shp127 { fill: #1699d6 } .shp128 { fill: #169ad6 } .shp129 { fill: #5db552 } .shp130 { fill: #159cd8 } .shp131 { fill: #2fac58 } .shp132 { fill: #1997d4 } .shp133 { fill: #63b752 } .shp134 { fill: #189ad6 } .shp135 { fill: #67b951 } .shp136 { fill: #76bd4f } .shp137 { fill: #59b5bc } .shp138 { fill: #add145 } .shp139 { fill: #9fcc48 } .shp140 { fill: #90c74b } .shp141 { fill: #98c949 } .shp142 { fill: #a8cf46 } .shp143 { fill: #8ac44c } .shp144 { fill: #dbe138 } .shp145 { fill: #79be4e } .shp146 { fill: #2eab58 } .shp147 { fill: #7cc04e } .shp148 { fill: #69b951 } .shp149 { fill: #46b1d1 } .shp150 { fill: #a7cf46 } .shp151 { fill: #b0d244 } .shp152 { fill: #8ec64b } .shp153 { fill: #95c84a } .shp154 { fill: #4bb155 } .shp155 { fill: #9ecb48 } .shp156 { fill: #48b055 } .shp157 { fill: #50b254 } .shp158 { fill: #3bae57 } .shp159 { fill: #40af56 } .shp160 { fill: #31ac57 } .shp161 { fill: #58b453 } .shp162 { fill: #19a0db } .shp163 { fill: #199fda } .shp164 { fill: #85c34d } .shp165 { fill: #b5d443 } .shp166 { fill: #45b056 } .shp167 { fill: #a9d048 } .shp168 { fill: #2791cf } .shp169 { fill: #c0d840 } .shp170 { fill: #2392d0 } .shp171 { fill: #e2e435 } .shp172 { fill: #d3de3a } .shp173 { fill: #43afd3 } .shp174 { fill: #1798d4 } .shp175 { fill: #2691cf } .shp176 { fill: #2093d1 } .shp177 { fill: #9ccb50 } .shp178 { fill: #60b7b4 } .shp179 { fill: #2d8fcd } .shp180 { fill: #53b4c4 } .shp181 { fill: #efe930 } .shp182 { fill: #1d94d2 } .shp183 { fill: #b3d344 } .shp184 { fill: #9cca48 } .shp185 { fill: #52b3c5 } .shp186 { fill: #2193d1 } .shp187 { fill: #1f94d1 } .shp188 { fill: #87c270 } .shp189 { fill: #8bc368 } .shp190 { fill: #abd046 } .shp191 { fill: #b7d442 } .shp192 { fill: #51b3c7 } .shp193 { fill: #59b5bd } .shp194 { fill: #1aa1db } .shp195 { fill: #e8e634 } .shp196 { fill: #e9e733 } .shp197 { fill: #2dabe2 } .shp198 { fill: #d6df3a } .shp199 { fill: #80c14d } .shp200 { fill: #97c857 } .shp201 { fill: #77bd8e } .shp202 { fill: #5eb7b7 } .shp203 { fill: #70bb9a } .shp204 { fill: #41afd6 } .shp205 { fill: #26a7df } .shp206 { fill: #e0e337 } </style><g id="g10"><g id="g12"><g id="Clip-Path: g14" clip-path="url(#cp1)"><g id="g14"><g id="g20"><g id="g22"> </g><g id="g30"><g id="Clip-Path: g28" clip-path="url(#cp2)"><g id="g28" style="opacity: 0.2"> </g></g></g></g><g id="g32"><g id="g34"> </g><g id="g42"><g id="Clip-Path: g40" clip-path="url(#cp3)"><g id="g40" style="opacity: 0.2"> </g></g></g></g><g id="g44"><g id="g46"> </g><g id="g54"><g id="Clip-Path: g52" clip-path="url(#cp4)"><g id="g52" style="opacity: 0.2"> </g></g></g></g><g id="g56"><g id="g58"> </g><g id="g66"><g id="Clip-Path: g64" clip-path="url(#cp5)"><g id="g64" style="opacity: 0.2"> </g></g></g></g><g id="g68"><g id="g70"> </g><g id="g78"><g id="Clip-Path: g76" clip-path="url(#cp6)"><g id="g76" style="opacity: 0.2"> </g></g></g></g></g></g></g><g id="g80"><path id="path82" class="shp0" d="M1229.65 179.09L1284.43 138.72L1101.1 138.72L1101.1 381.19L1284.43 381.19L1284.43 340.82L1153.42 340.82L1153.42 278.74L1265.17 278.74L1265.17 238.37L1153.42 238.37L1153.42 179.09L1229.65 179.09Z"></path></g><g id="g84"><g id="Clip-Path: g86" clip-path="url(#cp7)"><g id="g86"><g id="g92"><path id="path94" fill-rule="evenodd" class="shp0" d="M962.72 233.24C1020.54 233.24 1052.39 258.73 1052.39 305.02C1052.39 353.43 1017.24 381.19 955.97 381.19L846.73 381.19L846.73 138.72L1055.46 138.72L1000.68 179.09L899.05 179.09L899.05 233.24L962.72 233.24ZM1002.28 307.21C1002.28 284.85 986.82 273.61 953.61 273.61L899.05 273.61L899.05 340.82L953.61 340.82C985.91 340.82 1002.28 330.06 1002.28 307.21Z"></path></g><g id="g96"><path id="path98" fill-rule="evenodd" class="shp0" d="M1432.95 138.72C1496.65 138.72 1536.22 171.97 1536.22 225.49C1536.22 279.02 1496.65 312.51 1432.95 312.51L1385.46 312.51L1385.46 381.19L1333.14 381.19L1333.14 138.72L1432.95 138.72ZM1483.82 225.61C1483.82 195.61 1465.36 179.09 1431.83 179.09L1385.46 179.09L1385.46 272.14L1431.83 272.14C1465.36 272.14 1483.82 255.61 1483.82 225.61Z"></path></g><g id="g100"><path id="path102" class="shp0" d="M756.92 328.69C743.51 336.09 727.89 340 711.76 340C664.59 340 630.35 306.34 630.35 259.95C630.35 213.56 664.59 179.9 711.76 179.9C729.6 179.9 745.59 184.91 759.34 194.79L796.87 167.13L796.87 167.13L794.39 164.95C772.48 145.71 743.2 135.53 709.73 135.53C673.42 135.53 640.47 147.78 616.95 170.01C593.28 192.37 580.25 223.84 580.25 258.62C580.25 293.55 593.24 325.48 616.82 348.53C640.47 371.64 673.35 384.37 709.4 384.37C747.11 384.37 780.05 371.22 802.37 347.3C785.15 334.6 768.52 322.35 768.52 322.35L756.92 328.69Z"></path></g></g></g></g><g id="g104"><g id="Clip-Path: g106" clip-path="url(#cp8)"><g id="g106"><g id="g112"><g id="g114"><path id="path116" class="shp1" d="M73.87 357.82L78.83 366.57L87.16 348.08L73.87 357.82Z"></path><path id="path118" class="shp2" d="M408.23 355.55L425.53 353.44L416.91 339.92L408.23 355.55Z"></path><path id="path120" class="shp2" d="M416.91 339.92L401.04 339.17L408.23 355.55L416.91 339.92Z"></path><path id="path122" class="shp3" d="M87.16 348.08L78.83 366.57L98.39 360.14L87.16 348.08Z"></path><path id="path124" class="shp4" d="M78.08 338.94L85 328.07L72.8 323.47L78.08 338.94Z"></path><path id="path126" class="shp5" d="M415.17 300.56L428.52 291.53L415.73 287.01L415.17 300.56Z"></path><path id="path128" class="shp6" d="M96.93 324.5L74.99 310.61L85 328.07L96.93 324.5Z"></path><path id="path130" class="shp7" d="M429.35 307.63L425.86 324.82L440.75 318.89L429.35 307.63Z"></path><path id="path132" class="shp8" d="M425.86 324.82L432.92 339.21L441.55 330.87L425.86 324.82Z"></path><path id="path134" class="shp4" d="M78.08 338.94L69.33 348.81L87.16 348.08L78.08 338.94Z"></path><path id="path136" class="shp9" d="M89.94 383.26L96.08 391.17L108.5 379.63L89.94 383.26Z"></path><path id="path138" class="shp2" d="M449.86 339.56L432.92 339.21L445.75 348.81L449.86 339.56Z"></path><path id="path140" class="shp10" d="M110.43 407.06L122.12 395.75L111.38 391.01L110.43 407.06Z"></path><path id="path142" class="shp11" d="M337.14 452.27L326.36 439.58L327.66 455.94L337.14 452.27Z"></path><path id="path144" class="shp12" d="M326.36 439.58L313.55 429.32L310.44 445.04L326.36 439.58Z"></path><path id="path146" class="shp13" d="M118.72 414.92L137.72 400.38L122.12 395.75L118.72 414.92Z"></path><path id="path148" class="shp14" d="M96.08 391.17L102.57 398.77L111.38 391.01L96.08 391.17Z"></path><path id="path150" class="shp15" d="M344.22 431.59L329.89 423.55L326.36 439.58L344.22 431.59Z"></path><path id="path152" class="shp9" d="M118.11 365.65L134.04 366.83L128.33 355.63L118.11 365.65Z"></path><path id="path154" class="shp16" d="M84.19 375.06L98.39 360.14L78.83 366.57L84.19 375.06Z"></path><path id="path156" class="shp17" d="M108.5 379.63L96.08 391.17L111.38 391.01L108.5 379.63Z"></path><path id="path158" class="shp13" d="M125.46 379.83L134.04 366.83L118.11 365.65L125.46 379.83Z"></path><path id="path160" class="shp18" d="M126.32 421.41L137.72 400.38L118.72 414.92L126.32 421.41Z"></path><path id="path162" class="shp19" d="M345.08 415.19L329.89 423.55L344.22 431.59L345.08 415.19Z"></path><path id="path164" class="shp2" d="M408.23 355.55L403.47 372.79L417.71 367.45L408.23 355.55Z"></path><path id="path166" class="shp20" d="M118.28 310.88L101.24 312.82L109.14 326.9L118.28 310.88Z"></path><path id="path168" class="shp21" d="M51.6 290.31L71.32 282.64L50.34 279.89L51.6 290.31Z"></path><path id="path170" class="shp22" d="M224.09 404.42L228.31 420.54L233.76 406.32L224.09 404.42Z"></path><path id="path172" class="shp23" d="M226.5 450.81L241.4 448.41L227.09 435.73L226.5 450.81Z"></path><path id="path174" class="shp24" d="M74.99 310.61L76.52 296.18L53.37 300.58L74.99 310.61Z"></path><path id="path176" class="shp25" d="M50.34 279.89L71.32 282.64L64.78 265.67L50.34 279.89Z"></path><path id="path178" class="shp26" d="M237.6 52.75L227.17 54.01L228.79 70.93L237.6 52.75Z"></path><path id="path180" class="shp27" d="M362.97 104.25L384.9 103.13L376.1 88.88L362.97 104.25Z"></path><path id="path182" class="shp28" d="M109.59 269.73L109.3 263.23L94.49 259.95L109.59 269.73Z"></path><path id="path184" class="shp29" d="M110.27 277.22L109.59 269.73L91.11 275.18L110.27 277.22Z"></path><path id="path186" class="shp30" d="M94.49 259.95L91.11 275.18L109.59 269.73L94.49 259.95Z"></path><path id="path188" class="shp24" d="M74.99 310.61L53.37 300.58L55.64 310.66L74.99 310.61L74.99 310.61Z"></path><path id="path190" class="shp31" d="M237.63 80.74L223.53 87.08L242.27 93.1L237.63 80.74Z"></path><path id="path192" class="shp27" d="M348.34 106.67L358.49 130.3L368.34 123.05L348.34 106.67Z"></path><path id="path194" class="shp32" d="M101.24 312.82L113.94 296.96L90.7 299.29L101.24 312.82Z"></path><path id="path196" class="shp33" d="M115.94 303.99L113.94 296.96L101.24 312.82L115.94 303.99Z"></path><path id="path198" class="shp34" d="M405.62 267.57L412.42 255.81L405.82 254.84L405.62 267.57Z"></path><path id="path200" class="shp35" d="M430.06 234.54L433.48 247.21L446.32 244.51L430.06 234.54Z"></path><path id="path202" class="shp36" d="M76.52 296.18L91.11 275.18L71.32 282.64L76.52 296.18Z"></path><path id="path204" class="shp27" d="M384.28 94.85L376.1 88.88L384.9 103.13L384.28 94.85Z"></path><path id="path206" class="shp37" d="M55.64 310.66L58.39 320.56L74.99 310.61L55.64 310.66L55.64 310.66Z"></path><path id="path208" class="shp38" d="M97.78 287.36L110.27 277.22L91.11 275.18L97.78 287.36Z"></path><path id="path210" class="shp39" d="M112.54 291L97.78 287.36L113.94 296.96L112.54 291Z"></path><path id="path212" class="shp40" d="M112.54 228.9L114.25 221.76L99.38 213.59L112.54 228.9Z"></path><path id="path214" class="shp41" d="M65.21 339.56L78.08 338.94L72.8 323.47L65.21 339.56Z"></path><path id="path216" class="shp33" d="M115.94 303.99L101.24 312.82L118.28 310.88L115.94 303.99Z"></path><path id="path218" class="shp42" d="M128.33 355.63L134.62 342.79L117.24 349.7L128.33 355.63Z"></path><path id="path220" class="shp43" d="M58.39 199.35L70.8 199.11L61.55 189.82L58.39 199.35Z"></path><path id="path222" class="shp34" d="M423.5 275.13L415.73 287.01L428.52 291.53L423.5 275.13Z"></path><path id="path224" class="shp1" d="M167.29 430.56L168.68 448.16L181.52 435.69L167.29 430.56Z"></path><path id="path226" class="shp44" d="M370.69 376.79L357.45 386.39L369.73 391.43L370.69 376.79Z"></path><path id="path228" class="shp45" d="M322.6 85.69L335.56 96.07L336.26 81.91L322.6 85.69Z"></path><path id="path230" class="shp46" d="M157.24 419.26L150.92 438.66L167.29 430.56L157.24 419.26Z"></path><path id="path232" class="shp1" d="M159.67 443.62L167.29 430.56L150.92 438.66L159.67 443.62Z"></path><path id="path234" class="shp47" d="M223.53 87.08L228.79 70.93L212.14 74.32L223.53 87.08Z"></path><path id="path236" class="shp46" d="M157.24 419.26L142.43 433.3L150.92 438.66L157.24 419.26Z"></path><path id="path238" class="shp48" d="M231.42 100.63L225.29 115.21L232.54 113.79L231.42 100.63Z"></path><path id="path240" class="shp47" d="M223.53 87.08L208.62 91.06L218.32 102.2L223.53 87.08Z"></path><path id="path242" class="shp46" d="M157.24 419.26L141.39 414.66L142.43 433.3L157.24 419.26Z"></path><path id="path244" class="shp4" d="M181.52 435.69L177.93 452.27L192.35 443.52L181.52 435.69Z"></path><path id="path246" class="shp49" d="M337.4 384.83L357.45 386.39L347.14 378.01L337.4 384.83Z"></path><path id="path248" class="shp25" d="M241.4 448.41L226.5 450.81L237.6 467.15L241.4 448.41Z"></path><path id="path250" class="shp13" d="M125.46 379.83L118.11 365.65L108.5 379.63L125.46 379.83Z"></path><path id="path252" class="shp50" d="M214.52 427.01L227.09 435.73L228.31 420.54L214.52 427.01Z"></path><path id="path254" class="shp25" d="M242.96 429.36L228.31 420.54L227.09 435.73L242.96 429.36Z"></path><path id="path256" class="shp51" d="M200.37 432.82L191.45 421.92L181.52 435.69L200.37 432.82Z"></path><path id="path258" class="shp52" d="M331.75 112.23L335.56 96.07L321.73 100.05L331.75 112.23Z"></path><path id="path260" class="shp23" d="M226.5 450.81L227.09 435.73L212.74 442.82L226.5 450.81Z"></path><path id="path262" class="shp39" d="M216.91 464.11L226.5 450.81L212.74 442.82L216.91 464.11Z"></path><path id="path264" class="shp53" d="M312.86 122.38L321.73 100.05L307.58 102.62L312.86 122.38Z"></path><path id="path266" class="shp54" d="M212.74 442.82L196.93 459.1L206.83 461.85L212.74 442.82Z"></path><path id="path268" class="shp55" d="M109.95 165.52L108.81 144.94L96.46 155.94L109.95 165.52Z"></path><path id="path270" class="shp9" d="M118.11 365.65L98.39 360.14L97.56 372.94L118.11 365.65Z"></path><path id="path272" class="shp53" d="M335.11 66.84L336.26 81.91L345.89 71.51L335.11 66.84Z"></path><path id="path274" class="shp56" d="M204.12 415.79L224.09 404.42L214.66 401.9L204.12 415.79Z"></path><path id="path276" class="shp4" d="M181.52 435.69L168.68 448.16L177.93 452.27L181.52 435.69Z"></path><path id="path278" class="shp17" d="M134.04 366.83L147.83 359.59L143.17 354.21L134.04 366.83Z"></path><path id="path280" class="shp17" d="M134.04 366.83L152.74 364.74L147.83 359.59L134.04 366.83Z"></path><path id="path282" class="shp57" d="M182.76 131.95L193.31 126.32L180.03 114.12L182.76 131.95Z"></path><path id="path284" class="shp58" d="M121.51 141.44L119.06 153.66L132.36 151.62L121.51 141.44Z"></path><path id="path286" class="shp59" d="M116.46 337.14L117.24 349.7L130.76 336.78L116.46 337.14Z"></path><path id="path288" class="shp60" d="M90.7 299.29L76.52 296.18L74.99 310.61L90.7 299.29Z"></path><path id="path290" class="shp61" d="M134.62 342.79L130.76 336.78L117.24 349.7L134.62 342.79Z"></path><path id="path292" class="shp59" d="M116.46 337.14L130.76 336.78L127.19 330.57L116.46 337.14Z"></path><path id="path294" class="shp62" d="M255.63 97.6L247.76 112L255.35 111.7L255.63 97.6Z"></path><path id="path296" class="shp63" d="M364.16 438.66L372.64 433.3L361.33 420.48L364.16 438.66Z"></path><path id="path298" class="shp9" d="M153.3 389.55L140.8 380.62L137.72 400.38L153.3 389.55Z"></path><path id="path300" class="shp27" d="M368.34 123.05L375.51 112.17L362.97 104.25L368.34 123.05Z"></path><path id="path302" class="shp56" d="M204.12 415.79L187.19 407.34L191.45 421.92L204.12 415.79Z"></path><path id="path304" class="shp64" d="M297.14 55.63L297.63 74.19L305.76 57.5L297.14 55.63Z"></path><path id="path306" class="shp65" d="M204.35 398.36L204.12 415.79L214.66 401.9L204.35 398.36Z"></path><path id="path308" class="shp66" d="M177.65 419.16L181.52 435.69L191.45 421.92L177.65 419.16Z"></path><path id="path310" class="shp25" d="M91.11 275.18L76.52 296.18L97.78 287.36L91.11 275.18Z"></path><path id="path312" class="shp67" d="M110.88 185.01L120.16 177.06L102.94 175.62L110.88 185.01Z"></path><path id="path314" class="shp17" d="M134.04 366.83L125.46 379.83L140.8 380.62L134.04 366.83Z"></path><path id="path316" class="shp45" d="M322.6 85.69L307.87 87.76L321.73 100.05L322.6 85.69Z"></path><path id="path318" class="shp9" d="M153.3 389.55L165.94 391.12L168.88 378.73L153.3 389.55Z"></path><path id="path320" class="shp66" d="M177.65 419.16L187.19 407.34L169.98 403.21L177.65 419.16Z"></path><path id="path322" class="shp6" d="M96.93 324.5L109.14 326.9L101.24 312.82L96.93 324.5Z"></path><path id="path324" class="shp44" d="M455.79 223.85L452.03 218.35L441.05 226.44L455.79 223.85Z"></path><path id="path326" class="shp46" d="M157.24 419.26L169.98 403.21L152.34 404.79L157.24 419.26Z"></path><path id="path328" class="shp17" d="M134.04 366.83L140.8 380.62L152.74 364.74L134.04 366.83Z"></path><path id="path330" class="shp40" d="M112.54 228.9L99.38 213.59L89.07 227.53L112.54 228.9Z"></path><path id="path332" class="shp68" d="M123.91 324.17L120.94 317.61L109.14 326.9L123.91 324.17Z"></path><path id="path334" class="shp69" d="M137.72 400.38L125.46 379.83L122.12 395.75L137.72 400.38Z"></path><path id="path336" class="shp70" d="M196.93 60.8L212.14 74.32L206.83 58.05L196.93 60.8Z"></path><path id="path338" class="shp71" d="M134.23 92.36L142.37 111.03L151.51 98.84L134.23 92.36Z"></path><path id="path340" class="shp72" d="M60.48 254.82L49.39 259.95L64.78 265.67L60.48 254.82Z"></path><path id="path342" class="shp73" d="M49.39 259.95L49.6 269.32L64.78 265.67L49.39 259.95Z"></path><path id="path344" class="shp74" d="M50.34 240.01L60.48 254.82L67.78 245.7L50.34 240.01Z"></path><path id="path346" class="shp75" d="M196.93 459.1L212.74 442.82L192.35 443.52L196.93 459.1Z"></path><path id="path348" class="shp76" d="M165.94 391.12L152.34 404.79L169.98 403.21L165.94 391.12Z"></path><path id="path350" class="shp77" d="M94.42 243.83L89.07 227.53L80.72 239.3L94.42 243.83Z"></path><path id="path352" class="shp78" d="M126.55 118.8L126.32 98.49L118.72 104.99L126.55 118.8Z"></path><path id="path354" class="shp79" d="M51.6 229.59L67.78 245.7L70.28 227.53L51.6 229.59Z"></path><path id="path356" class="shp80" d="M77.03 209.85L66.15 215.83L70.28 227.53L77.03 209.85Z"></path><path id="path358" class="shp81" d="M152.34 404.79L141.39 414.66L157.24 419.26L152.34 404.79Z"></path><path id="path360" class="shp82" d="M79.31 259.96L94.49 259.95L94.42 243.83L79.31 259.96L79.31 259.96Z"></path><path id="path362" class="shp22" d="M224.09 404.42L204.12 415.79L214.52 427.01L224.09 404.42Z"></path><path id="path364" class="shp39" d="M112.54 291L111.17 283.72L97.78 287.36L112.54 291Z"></path><path id="path366" class="shp79" d="M51.6 229.59L70.28 227.53L53.37 219.32L51.6 229.59Z"></path><path id="path368" class="shp30" d="M94.49 259.95L109.66 249.1L94.42 243.83L94.49 259.95L94.49 259.95Z"></path><path id="path370" class="shp83" d="M109.66 249.1L110.39 241.62L94.42 243.83L109.66 249.1Z"></path><path id="path372" class="shp84" d="M111.37 234.96L112.54 228.9L89.07 227.53L111.37 234.96Z"></path><path id="path374" class="shp27" d="M343.22 118.91L331.75 112.23L327.34 129.17L343.22 118.91Z"></path><path id="path376" class="shp85" d="M70.28 227.53L66.15 215.83L53.37 219.32L70.28 227.53Z"></path><path id="path378" class="shp27" d="M362.97 104.25L376.1 88.88L366.58 82.67L362.97 104.25Z"></path><path id="path380" class="shp44" d="M455.79 223.85L446.32 244.51L463.8 231.9L455.79 223.85Z"></path><path id="path382" class="shp86" d="M118.7 207.89L99.38 213.59L116.31 214.75L118.7 207.89Z"></path><path id="path384" class="shp4" d="M109.14 326.9L116.46 337.14L123.91 324.17L109.14 326.9Z"></path><path id="path386" class="shp87" d="M89.07 227.53L94.42 243.83L111.37 234.96L89.07 227.53Z"></path><path id="path388" class="shp25" d="M91.11 275.18L94.49 259.95L79.31 259.96L91.11 275.18L91.11 275.18Z"></path><path id="path390" class="shp88" d="M99.38 213.59L118.7 207.89L98.66 196.63L99.38 213.59Z"></path><path id="path392" class="shp89" d="M70.8 199.11L58.39 199.35L66.15 215.83L70.8 199.11Z"></path><path id="path394" class="shp90" d="M80.86 191.82L77.03 209.85L98.66 196.63L80.86 191.82Z"></path><path id="path396" class="shp91" d="M173.07 91.66L160.45 89.73L173.56 103.81L173.07 91.66Z"></path><path id="path398" class="shp92" d="M160.45 89.73L159.67 76.28L150.92 81.24L160.45 89.73Z"></path><path id="path400" class="shp93" d="M300.91 418.74L313.55 429.32L316.29 412.81L300.91 418.74Z"></path><path id="path402" class="shp94" d="M78.59 179.51L65.21 180.34L80.86 191.82L78.59 179.51Z"></path><path id="path404" class="shp95" d="M356.3 370.45L347.14 378.01L357.45 386.39L356.3 370.45Z"></path><path id="path406" class="shp96" d="M73.87 162.08L78.59 179.51L86.54 164.06L73.87 162.08Z"></path><path id="path408" class="shp94" d="M78.59 179.51L73.87 162.08L69.33 171.09L78.59 179.51Z"></path><path id="path410" class="shp0" d="M364.82 362.2L356.3 370.45L370.69 376.79L364.82 362.2Z"></path><path id="path412" class="shp97" d="M55.64 209.24L66.15 215.83L58.39 199.35L55.64 209.24Z"></path><path id="path414" class="shp98" d="M279.98 444.12L296.76 436.71L282.69 424.93L279.98 444.12Z"></path><path id="path416" class="shp99" d="M89.94 136.64L96.46 155.94L108.81 144.94L89.94 136.64Z"></path><path id="path418" class="shp100" d="M120.94 202.29L123.91 195.73L110.88 185.01L120.94 202.29Z"></path><path id="path420" class="shp35" d="M433.48 247.21L419.08 242.64L423.3 262.41L433.48 247.21Z"></path><path id="path422" class="shp99" d="M89.94 136.64L84.19 144.84L96.46 155.94L89.94 136.64Z"></path><path id="path424" class="shp52" d="M336.26 81.91L356.38 76.79L345.89 71.51L336.26 81.91Z"></path><path id="path426" class="shp101" d="M108.81 144.94L115.72 130.41L96.08 128.73L108.81 144.94Z"></path><path id="path428" class="shp102" d="M160.56 372.02L152.74 364.74L140.8 380.62L160.56 372.02Z"></path><path id="path430" class="shp103" d="M102.57 121.13L115.72 130.41L110.43 112.84L102.57 121.13Z"></path><path id="path432" class="shp78" d="M126.55 118.8L110.43 112.84L115.72 130.41L126.55 118.8Z"></path><path id="path434" class="shp27" d="M354.27 92.25L348.34 106.67L362.97 104.25L354.27 92.25Z"></path><path id="path436" class="shp104" d="M127.19 189.33L110.88 185.01L123.91 195.73L127.19 189.33Z"></path><path id="path438" class="shp34" d="M435.25 272.22L423.5 275.13L428.52 291.53L435.25 272.22Z"></path><path id="path440" class="shp105" d="M116.31 214.75L99.38 213.59L114.25 221.76L116.31 214.75Z"></path><path id="path442" class="shp106" d="M415.73 287.01L402.54 291L415.17 300.56L415.73 287.01Z"></path><path id="path444" class="shp107" d="M124.88 165.79L120.16 177.06L134.62 177.11L124.88 165.79L124.88 165.79Z"></path><path id="path446" class="shp108" d="M132.36 151.62L144.35 142.1L131.43 133.9L132.36 151.62Z"></path><path id="path448" class="shp64" d="M285.83 114.39L291.84 115.68L293.73 92.34L285.83 114.39Z"></path><path id="path450" class="shp42" d="M138.76 348.61L128.33 355.63L143.17 354.21L138.76 348.61Z"></path><path id="path452" class="shp109" d="M138.76 171.29L124.88 165.79L134.62 177.11L138.76 171.29Z"></path><path id="path454" class="shp110" d="M98.66 196.63L120.94 202.29L110.88 185.01L98.66 196.63Z"></path><path id="path456" class="shp108" d="M132.36 151.62L124.88 165.79L143.17 165.69L132.36 151.62L132.36 151.62Z"></path><path id="path458" class="shp101" d="M108.81 144.94L96.08 128.73L89.94 136.64L108.81 144.94Z"></path><path id="path460" class="shp111" d="M147.83 160.31L132.36 151.62L143.17 165.69L147.83 160.31Z"></path><path id="path462" class="shp112" d="M293.73 92.34L291.84 115.68L307.58 102.62L293.73 92.34Z"></path><path id="path464" class="shp110" d="M98.66 196.63L90.66 176.2L80.86 191.82L98.66 196.63Z"></path><path id="path466" class="shp113" d="M156.15 151.85L144.35 142.1L147.83 160.31L156.15 151.85Z"></path><path id="path468" class="shp84" d="M111.37 234.96L94.42 243.83L110.39 241.62L111.37 234.96Z"></path><path id="path470" class="shp114" d="M110.43 112.84L126.55 118.8L118.72 104.99L110.43 112.84Z"></path><path id="path472" class="shp115" d="M248.17 52.01L245.17 69.89L257.54 51.81L248.17 52.01Z"></path><path id="path474" class="shp44" d="M370.69 376.79L369.73 391.43L383.4 386.06L370.69 376.79Z"></path><path id="path476" class="shp116" d="M158.46 127.24L144.35 142.1L164.2 144.83L158.46 127.24Z"></path><path id="path478" class="shp108" d="M132.36 151.62L147.83 160.31L144.35 142.1L132.36 151.62Z"></path><path id="path480" class="shp117" d="M164.2 144.83L173.71 137.71L158.46 127.24L164.2 144.83Z"></path><path id="path482" class="shp27" d="M344.88 132.07L348.64 137.56L358.49 130.3L344.88 132.07Z"></path><path id="path484" class="shp118" d="M203.22 121.98L190.79 106.45L193.31 126.32L203.22 121.98Z"></path><path id="path486" class="shp53" d="M312.86 122.38L307.58 102.62L305.97 119.8L312.86 122.38Z"></path><path id="path488" class="shp85" d="M70.28 227.53L67.78 245.7L80.72 239.3L70.28 227.53Z"></path><path id="path490" class="shp116" d="M158.46 127.24L173.71 137.71L171.56 124.49L158.46 127.24Z"></path><path id="path492" class="shp53" d="M321.73 100.05L307.87 87.76L307.58 102.62L321.73 100.05Z"></path><path id="path494" class="shp57" d="M182.76 131.95L180.03 114.12L171.56 124.49L182.76 131.95Z"></path><path id="path496" class="shp119" d="M105.52 350.78L87.16 348.08L98.39 360.14L105.52 350.78Z"></path><path id="path498" class="shp120" d="M171.56 124.49L162.66 109.22L158.46 127.24L171.56 124.49Z"></path><path id="path500" class="shp121" d="M151.51 98.84L150.92 81.24L142.43 86.6L151.51 98.84Z"></path><path id="path502" class="shp122" d="M142.37 111.03L134.23 92.36L126.32 98.49L142.37 111.03Z"></path><path id="path504" class="shp116" d="M158.46 127.24L153.09 116.48L131.43 133.9L158.46 127.24Z"></path><path id="path506" class="shp120" d="M162.66 109.22L153.09 116.48L158.46 127.24L162.66 109.22Z"></path><path id="path508" class="shp123" d="M193.39 93.5L173.56 103.81L190.79 106.45L193.39 93.5Z"></path><path id="path510" class="shp118" d="M184.24 81.41L173.07 91.66L193.39 93.5L184.24 81.41Z"></path><path id="path512" class="shp124" d="M190.79 106.45L203.99 105.78L193.39 93.5L190.79 106.45Z"></path><path id="path514" class="shp125" d="M168.68 71.74L159.67 76.28L173.07 91.66L168.68 71.74Z"></path><path id="path516" class="shp92" d="M160.45 89.73L151.51 98.84L162.66 109.22L160.45 89.73Z"></path><path id="path518" class="shp126" d="M214.66 118L225.29 115.21L218.32 102.2L214.66 118Z"></path><path id="path520" class="shp122" d="M142.37 111.03L153.09 116.48L151.51 98.84L142.37 111.03Z"></path><path id="path522" class="shp124" d="M190.79 106.45L203.22 121.98L203.99 105.78L190.79 106.45Z"></path><path id="path524" class="shp127" d="M212.14 74.32L198.72 79.95L208.62 91.06L212.14 74.32Z"></path><path id="path526" class="shp118" d="M177.93 67.63L184.24 81.41L187.41 63.96L177.93 67.63Z"></path><path id="path528" class="shp128" d="M208.62 91.06L203.99 105.78L218.32 102.2L208.62 91.06Z"></path><path id="path530" class="shp55" d="M109.95 165.52L102.94 175.62L120.16 177.06L109.95 165.52Z"></path><path id="path532" class="shp35" d="M446.32 244.51L441.05 226.44L430.06 234.54L446.32 244.51Z"></path><path id="path534" class="shp127" d="M212.14 74.32L216.91 55.79L206.83 58.05L212.14 74.32Z"></path><path id="path536" class="shp129" d="M327.1 390.87L316.3 396.08L326.81 404.45L327.1 390.87Z"></path><path id="path538" class="shp130" d="M187.41 63.96L198.72 79.95L196.93 60.8L187.41 63.96Z"></path><path id="path540" class="shp131" d="M372.66 353.29L364.82 362.2L384.02 371.86L372.66 353.29Z"></path><path id="path542" class="shp118" d="M184.24 81.41L198.72 79.95L187.41 63.96L184.24 81.41Z"></path><path id="path544" class="shp127" d="M212.14 74.32L228.79 70.93L216.91 55.79L212.14 74.32Z"></path><path id="path546" class="shp19" d="M345.08 415.19L361.33 420.48L355.76 399.56L345.08 415.19Z"></path><path id="path548" class="shp132" d="M240.27 112.68L247.76 112L242.27 93.1L240.27 112.68Z"></path><path id="path550" class="shp133" d="M326.81 404.45L329.89 423.55L345.08 415.19L326.81 404.45Z"></path><path id="path552" class="shp134" d="M218.32 102.2L203.99 105.78L214.66 118L218.32 102.2Z"></path><path id="path554" class="shp135" d="M329.89 423.55L316.29 412.81L313.55 429.32L329.89 423.55Z"></path><path id="path556" class="shp136" d="M305.04 400.42L300.91 418.74L316.29 412.81L305.04 400.42Z"></path><path id="path558" class="shp137" d="M120.16 177.06L110.88 185.01L127.19 189.33L120.16 177.06Z"></path><path id="path560" class="shp125" d="M168.68 71.74L173.07 91.66L184.24 81.41L168.68 71.74Z"></path><path id="path562" class="shp81" d="M152.34 404.79L153.3 389.55L137.72 400.38L152.34 404.79Z"></path><path id="path564" class="shp25" d="M241.4 448.41L242.96 429.36L227.09 435.73L241.4 448.41Z"></path><path id="path566" class="shp2" d="M417.71 367.45L403.47 372.79L408.5 384.29L417.71 367.45Z"></path><path id="path568" class="shp138" d="M248.17 467.89L255.68 453.16L241.4 448.41L248.17 467.89Z"></path><path id="path570" class="shp66" d="M177.65 419.16L191.45 421.92L187.19 407.34L177.65 419.16Z"></path><path id="path572" class="shp1" d="M185.87 389.72L187.19 407.34L195.48 394.6L185.87 389.72Z"></path><path id="path574" class="shp139" d="M266.9 467.89L269.83 454.02L255.68 453.16L266.9 467.89Z"></path><path id="path576" class="shp140" d="M287.9 465.89L279.98 444.12L269.83 454.02L287.9 465.89Z"></path><path id="path578" class="shp141" d="M277.48 467.15L287.9 465.89L269.83 454.02L277.48 467.15Z"></path><path id="path580" class="shp142" d="M255.68 453.16L269.83 454.02L257.58 438.23L255.68 453.16Z"></path><path id="path582" class="shp56" d="M204.12 415.79L204.35 398.36L187.19 407.34L204.12 415.79Z"></path><path id="path584" class="shp46" d="M157.24 419.26L167.29 430.56L177.65 419.16L157.24 419.26L157.24 419.26Z"></path><path id="path586" class="shp143" d="M292.89 450.64L308.25 461.85L310.44 445.04L292.89 450.64Z"></path><path id="path588" class="shp144" d="M177.93 452.27L187.41 455.94L192.35 443.52L177.93 452.27Z"></path><path id="path590" class="shp38" d="M233.76 406.32L228.31 420.54L244.54 407.66L233.76 406.32Z"></path><path id="path592" class="shp145" d="M318.14 459.1L310.44 445.04L308.25 461.85L318.14 459.1Z"></path><path id="path594" class="shp106" d="M428.52 291.53L441.8 282.4L435.25 272.22L428.52 291.53Z"></path><path id="path596" class="shp146" d="M444.51 299.43L428.52 291.53L429.35 307.63L444.51 299.43Z"></path><path id="path598" class="shp12" d="M326.36 439.58L337.14 452.27L346.4 448.16L326.36 439.58Z"></path><path id="path600" class="shp63" d="M364.16 438.66L344.22 431.59L355.4 443.62L364.16 438.66Z"></path><path id="path602" class="shp8" d="M425.86 324.82L408.94 312.02L408.32 325.05L425.86 324.82Z"></path><path id="path604" class="shp133" d="M326.81 404.45L345.08 415.19L339.62 400.42L326.81 404.45Z"></path><path id="path606" class="shp8" d="M425.86 324.82L416.91 339.92L432.92 339.21L425.86 324.82Z"></path><path id="path608" class="shp7" d="M440.75 318.89L453.53 330.08L456.69 320.56L440.75 318.89Z"></path><path id="path610" class="shp12" d="M326.36 439.58L346.4 448.16L344.22 431.59L326.36 439.58Z"></path><path id="path612" class="shp7" d="M399.49 302.83L408.94 312.02L415.17 300.56L399.49 302.83Z"></path><path id="path614" class="shp147" d="M310.44 445.04L318.14 459.1L327.66 455.94L310.44 445.04Z"></path><path id="path616" class="shp51" d="M200.37 432.82L204.12 415.79L191.45 421.92L200.37 432.82Z"></path><path id="path618" class="shp148" d="M316.3 396.08L316.29 412.81L326.81 404.45L316.3 396.08L316.3 396.08Z"></path><path id="path620" class="shp149" d="M119.06 153.66L124.88 165.79L132.36 151.62L119.06 153.66Z"></path><path id="path622" class="shp150" d="M256.7 423.2L244.54 407.66L242.96 429.36L256.7 423.2Z"></path><path id="path624" class="shp150" d="M256.7 423.2L255.35 408.2L244.54 407.66L256.7 423.2Z"></path><path id="path626" class="shp20" d="M118.28 310.88L109.14 326.9L120.94 317.61L118.28 310.88Z"></path><path id="path628" class="shp151" d="M78.81 272.53L64.78 265.67L71.32 282.64L78.81 272.53Z"></path><path id="path630" class="shp152" d="M282.69 424.93L269.3 430L279.98 444.12L282.69 424.93Z"></path><path id="path632" class="shp86" d="M118.7 207.89L120.94 202.29L98.66 196.63L118.7 207.89Z"></path><path id="path634" class="shp152" d="M282.69 424.93L300.91 418.74L284.96 405.68L282.69 424.93Z"></path><path id="path636" class="shp153" d="M274.81 407.22L282.69 424.93L284.96 405.68L274.81 407.22Z"></path><path id="path638" class="shp132" d="M240.27 112.68L242.27 93.1L231.42 100.63L240.27 112.68Z"></path><path id="path640" class="shp150" d="M256.7 423.2L269.3 430L265.16 408.03L256.7 423.2Z"></path><path id="path642" class="shp27" d="M348.34 106.67L343.22 118.91L358.49 130.3L348.34 106.67Z"></path><path id="path644" class="shp136" d="M305.04 400.42L316.29 412.81L316.3 396.08L305.04 400.42L305.04 400.42Z"></path><path id="path646" class="shp136" d="M305.04 400.42L294.55 403.54L300.91 418.74L305.04 400.42Z"></path><path id="path648" class="shp49" d="M337.4 384.83L327.1 390.87L339.62 400.42L337.4 384.83Z"></path><path id="path650" class="shp137" d="M120.16 177.06L127.19 189.33L130.76 183.12L120.16 177.06Z"></path><path id="path652" class="shp102" d="M160.56 372.02L153.3 389.55L168.88 378.73L160.56 372.02Z"></path><path id="path654" class="shp154" d="M355.76 399.56L369.73 391.43L357.45 386.39L355.76 399.56Z"></path><path id="path656" class="shp155" d="M265.16 408.03L269.3 430L274.81 407.22L265.16 408.03Z"></path><path id="path658" class="shp7" d="M403.47 372.79L390.49 359.21L384.02 371.86L403.47 372.79Z"></path><path id="path660" class="shp95" d="M369.73 391.43L370.55 406.09L386.33 402.08L369.73 391.43Z"></path><path id="path662" class="shp112" d="M297.63 74.19L283.32 80.61L293.73 92.34L297.63 74.19Z"></path><path id="path664" class="shp156" d="M380.85 427.54L388.76 421.41L370.55 406.09L380.85 427.54Z"></path><path id="path666" class="shp83" d="M109.66 249.1L94.49 259.95L109.3 256.67L109.66 249.1Z"></path><path id="path668" class="shp157" d="M361.33 420.48L380.85 427.54L370.55 406.09L361.33 420.48Z"></path><path id="path670" class="shp2" d="M417.71 367.45L425.13 383.26L430.89 375.06L417.71 367.45Z"></path><path id="path672" class="shp2" d="M408.23 355.55L390.49 359.21L403.47 372.79L408.23 355.55Z"></path><path id="path674" class="shp150" d="M257.54 468.1L255.68 453.16L248.17 467.89L257.54 468.1Z"></path><path id="path676" class="shp158" d="M396.36 414.92L386.33 402.08L388.76 421.41L396.36 414.92Z"></path><path id="path678" class="shp131" d="M372.66 353.29L384.02 371.86L390.49 359.21L372.66 353.29Z"></path><path id="path680" class="shp7" d="M403.47 372.79L384.02 371.86L383.4 386.06L403.47 372.79Z"></path><path id="path682" class="shp159" d="M388.76 421.41L386.33 402.08L370.55 406.09L388.76 421.41Z"></path><path id="path684" class="shp131" d="M372.66 353.29L390.49 359.21L379.78 343.77L372.66 353.29Z"></path><path id="path686" class="shp160" d="M384.02 371.86L370.69 376.79L383.4 386.06L384.02 371.86Z"></path><path id="path688" class="shp160" d="M398.3 391.61L383.4 386.06L386.33 402.08L398.3 391.61Z"></path><path id="path690" class="shp0" d="M404.65 407.06L412.5 398.77L398.3 391.61L404.65 407.06Z"></path><path id="path692" class="shp160" d="M384.02 371.86L364.82 362.2L370.69 376.79L384.02 371.86Z"></path><path id="path694" class="shp0" d="M404.65 407.06L398.3 391.61L386.33 402.08L404.65 407.06Z"></path><path id="path696" class="shp129" d="M327.1 390.87L326.81 404.45L339.62 400.42L327.1 390.87Z"></path><path id="path698" class="shp161" d="M339.62 400.42L355.76 399.56L357.45 386.39L339.62 400.42Z"></path><path id="path700" class="shp5" d="M408.5 384.29L425.13 383.26L417.71 367.45L408.5 384.29Z"></path><path id="path702" class="shp15" d="M344.22 431.59L346.4 448.16L355.4 443.62L344.22 431.59Z"></path><path id="path704" class="shp135" d="M329.89 423.55L313.55 429.32L326.36 439.58L329.89 423.55Z"></path><path id="path706" class="shp2" d="M425.53 353.44L436.25 366.57L441.21 357.82L425.53 353.44Z"></path><path id="path708" class="shp8" d="M408.32 325.05L401.04 339.17L416.91 339.92L408.32 325.05Z"></path><path id="path710" class="shp143" d="M284.96 405.68L300.91 418.74L294.55 403.54L284.96 405.68Z"></path><path id="path712" class="shp2" d="M408.23 355.55L417.71 367.45L425.53 353.44L408.23 355.55Z"></path><path id="path714" class="shp162" d="M173.56 103.81L193.39 93.5L173.07 91.66L173.56 103.81Z"></path><path id="path716" class="shp163" d="M193.31 126.32L190.79 106.45L180.03 114.12L193.31 126.32Z"></path><path id="path718" class="shp2" d="M432.92 339.21L416.91 339.92L425.53 353.44L432.92 339.21Z"></path><path id="path720" class="shp164" d="M296.76 436.71L300.91 418.74L282.69 424.93L296.76 436.71Z"></path><path id="path722" class="shp106" d="M412.5 398.77L408.5 384.29L398.3 391.61L412.5 398.77Z"></path><path id="path724" class="shp135" d="M329.89 423.55L326.81 404.45L316.29 412.81L329.89 423.55Z"></path><path id="path726" class="shp8" d="M441.55 330.87L449.86 339.56L453.53 330.08L441.55 330.87Z"></path><path id="path728" class="shp143" d="M292.89 450.64L287.9 465.89L298.16 464.11L292.89 450.64Z"></path><path id="path730" class="shp7" d="M390.49 359.21L391.61 347L379.78 343.77L390.49 359.21Z"></path><path id="path732" class="shp8" d="M391.16 324.17L386.14 333.69L401.04 339.17L391.16 324.17Z"></path><path id="path734" class="shp165" d="M237.6 467.15L226.5 450.81L227.17 465.89L237.6 467.15Z"></path><path id="path736" class="shp9" d="M141.39 414.66L126.32 421.41L134.23 427.54L141.39 414.66Z"></path><path id="path738" class="shp7" d="M399.49 302.83L415.17 300.56L402.54 291L399.49 302.83Z"></path><path id="path740" class="shp157" d="M361.33 420.48L344.22 431.59L364.16 438.66L361.33 420.48Z"></path><path id="path742" class="shp34" d="M405.62 267.57L404.55 279.34L423.5 275.13L405.62 267.57Z"></path><path id="path744" class="shp34" d="M423.5 275.13L404.55 279.34L415.73 287.01L423.5 275.13Z"></path><path id="path746" class="shp35" d="M419.08 242.64L412.42 255.81L423.3 262.41L419.08 242.64Z"></path><path id="path748" class="shp8" d="M395.95 313.14L391.16 324.17L408.32 325.05L395.95 313.14Z"></path><path id="path750" class="shp166" d="M370.55 406.09L355.76 399.56L361.33 420.48L370.55 406.09Z"></path><path id="path752" class="shp7" d="M408.94 312.02L429.35 307.63L415.17 300.56L408.94 312.02Z"></path><path id="path754" class="shp128" d="M208.62 91.06L223.53 87.08L212.14 74.32L208.62 91.06Z"></path><path id="path756" class="shp7" d="M440.75 318.89L459.44 310.66L444.51 299.43L440.75 318.89Z"></path><path id="path758" class="shp69" d="M137.72 400.38L140.8 380.62L125.46 379.83L137.72 400.38Z"></path><path id="path760" class="shp69" d="M140.8 380.62L153.3 389.55L160.56 372.02L140.8 380.62Z"></path><path id="path762" class="shp131" d="M461.7 300.58L451.46 289.59L444.51 299.43L461.7 300.58Z"></path><path id="path764" class="shp0" d="M449.99 266.84L451.46 289.59L464.74 279.89L449.99 266.84Z"></path><path id="path766" class="shp27" d="M368.34 123.05L362.97 104.25L348.34 106.67L368.34 123.05Z"></path><path id="path768" class="shp0" d="M449.99 266.84L464.74 279.89L465.48 269.32L449.99 266.84Z"></path><path id="path770" class="shp19" d="M345.08 415.19L355.76 399.56L339.62 400.42L345.08 415.19Z"></path><path id="path772" class="shp166" d="M370.55 406.09L369.73 391.43L355.76 399.56L370.55 406.09Z"></path><path id="path774" class="shp160" d="M404.55 279.34L402.54 291L415.73 287.01L404.55 279.34Z"></path><path id="path776" class="shp27" d="M362.97 104.25L375.51 112.17L384.9 103.13L362.97 104.25Z"></path><path id="path778" class="shp7" d="M440.75 318.89L456.69 320.56L459.44 310.66L440.75 318.89Z"></path><path id="path780" class="shp8" d="M425.86 324.82L441.55 330.87L440.75 318.89L425.86 324.82Z"></path><path id="path782" class="shp0" d="M449.99 266.84L435.25 272.22L441.8 282.4L449.99 266.84Z"></path><path id="path784" class="shp123" d="M193.39 93.5L203.99 105.78L208.62 91.06L193.39 93.5Z"></path><path id="path786" class="shp8" d="M391.16 324.17L401.04 339.17L408.32 325.05L391.16 324.17Z"></path><path id="path788" class="shp8" d="M391.61 347L386.14 333.69L379.78 343.77L391.61 347Z"></path><path id="path790" class="shp2" d="M445.75 348.81L432.92 339.21L441.21 357.82L445.75 348.81Z"></path><path id="path792" class="shp167" d="M109.3 263.23L109.3 256.67L94.49 259.95L109.3 263.23Z"></path><path id="path794" class="shp134" d="M218.32 102.2L225.29 115.21L231.42 100.63L218.32 102.2Z"></path><path id="path796" class="shp52" d="M331.75 112.23L321.73 100.05L312.86 122.38L331.75 112.23Z"></path><path id="path798" class="shp168" d="M305.97 119.8L307.58 102.62L298.95 117.56L305.97 119.8Z"></path><path id="path800" class="shp169" d="M228.31 420.54L224.09 404.42L214.52 427.01L228.31 420.54Z"></path><path id="path802" class="shp170" d="M285.98 67.37L297.14 55.63L286.98 53.91L285.98 67.37Z"></path><path id="path804" class="shp112" d="M293.73 92.34L279.72 98.07L285.83 114.39L293.73 92.34Z"></path><path id="path806" class="shp42" d="M128.33 355.63L134.04 366.83L143.17 354.21L128.33 355.63Z"></path><path id="path808" class="shp171" d="M101.39 339.76L105.52 350.78L116.46 337.14L101.39 339.76Z"></path><path id="path810" class="shp170" d="M279.72 98.07L278.55 113.16L285.83 114.39L279.72 98.07Z"></path><path id="path812" class="shp168" d="M307.58 102.62L291.84 115.68L298.95 117.56L307.58 102.62Z"></path><path id="path814" class="shp31" d="M242.27 93.1L247.76 112L255.63 97.6L242.27 93.1Z"></path><path id="path816" class="shp27" d="M343.66 138.61L345.41 138.7L344.88 132.07L343.66 138.61L343.66 138.61Z"></path><path id="path818" class="shp0" d="M423.3 262.41L423.5 275.13L435.25 272.22L423.3 262.41Z"></path><path id="path820" class="shp172" d="M72.8 323.47L58.39 320.56L61.55 330.08L72.8 323.47Z"></path><path id="path822" class="shp27" d="M344.88 132.07L342 138.06L343.66 138.61L344.88 132.07Z"></path><path id="path824" class="shp168" d="M325.49 63.24L315.7 60.13L313.51 74.43L325.49 63.24Z"></path><path id="path826" class="shp45" d="M322.6 85.69L335.11 66.84L325.49 63.24L322.6 85.69Z"></path><path id="path828" class="shp52" d="M327.34 129.17L333.8 132.84L343.22 118.91L327.34 129.17Z"></path><path id="path830" class="shp173" d="M143.17 165.69L124.88 165.79L138.76 171.29L143.17 165.69L143.17 165.69Z"></path><path id="path832" class="shp26" d="M237.6 52.75L228.79 70.93L245.17 69.89L237.6 52.75Z"></path><path id="path834" class="shp53" d="M320.74 125.84L327.34 129.17L331.75 112.23L320.74 125.84Z"></path><path id="path836" class="shp27" d="M344.88 132.07L343.22 118.91L333.8 132.84L344.88 132.07Z"></path><path id="path838" class="shp5" d="M459.44 310.66L461.7 300.58L444.51 299.43L459.44 310.66Z"></path><path id="path840" class="shp12" d="M326.36 439.58L310.44 445.04L327.66 455.94L326.36 439.58Z"></path><path id="path842" class="shp52" d="M331.75 112.23L312.86 122.38L320.74 125.84L331.75 112.23Z"></path><path id="path844" class="shp1" d="M185.87 389.72L177.68 384.83L169.98 403.21L185.87 389.72Z"></path><path id="path846" class="shp130" d="M203.99 105.78L203.22 121.98L214.66 118L203.99 105.78Z"></path><path id="path848" class="shp62" d="M255.63 97.6L263.77 111.81L279.72 98.07L255.63 97.6Z"></path><path id="path850" class="shp134" d="M218.32 102.2L231.42 100.63L223.53 87.08L218.32 102.2Z"></path><path id="path852" class="shp8" d="M425.86 324.82L408.32 325.05L416.91 339.92L425.86 324.82Z"></path><path id="path854" class="shp115" d="M245.17 69.89L237.63 80.74L254.26 83.56L245.17 69.89Z"></path><path id="path856" class="shp7" d="M399.49 302.83L395.95 313.14L408.94 312.02L399.49 302.83Z"></path><path id="path858" class="shp174" d="M228.79 70.93L237.63 80.74L245.17 69.89L228.79 70.93Z"></path><path id="path860" class="shp170" d="M283.32 80.61L269.13 87.27L279.72 98.07L283.32 80.61Z"></path><path id="path862" class="shp7" d="M408.94 312.02L425.86 324.82L429.35 307.63L408.94 312.02Z"></path><path id="path864" class="shp170" d="M278.55 113.16L279.72 98.07L271.19 112.3L278.55 113.16Z"></path><path id="path866" class="shp31" d="M242.27 93.1L255.63 97.6L254.26 83.56L242.27 93.1Z"></path><path id="path868" class="shp27" d="M358.49 130.3L343.22 118.91L344.88 132.07L358.49 130.3Z"></path><path id="path870" class="shp112" d="M305.76 57.5L297.63 74.19L313.51 74.43L305.76 57.5Z"></path><path id="path872" class="shp119" d="M105.52 350.78L118.11 365.65L117.24 349.7L105.52 350.78Z"></path><path id="path874" class="shp175" d="M307.87 87.76L293.73 92.34L307.58 102.62L307.87 87.76Z"></path><path id="path876" class="shp170" d="M285.98 67.37L276.74 52.7L273.37 65.07L285.98 67.37Z"></path><path id="path878" class="shp27" d="M348.34 106.67L331.75 112.23L343.22 118.91L348.34 106.67Z"></path><path id="path880" class="shp65" d="M204.35 398.36L195.48 394.6L187.19 407.34L204.35 398.36Z"></path><path id="path882" class="shp176" d="M271.19 112.3L279.72 98.07L263.77 111.81L271.19 112.3Z"></path><path id="path884" class="shp117" d="M164.2 144.83L144.35 142.1L156.15 151.85L164.2 144.83Z"></path><path id="path886" class="shp176" d="M273.37 65.07L266.42 52L261.59 70.11L273.37 65.07Z"></path><path id="path888" class="shp170" d="M283.32 80.61L285.98 67.37L273.37 65.07L283.32 80.61Z"></path><path id="path890" class="shp56" d="M204.12 415.79L200.37 432.82L214.52 427.01L204.12 415.79Z"></path><path id="path892" class="shp116" d="M158.46 127.24L131.43 133.9L144.35 142.1L158.46 127.24Z"></path><path id="path894" class="shp175" d="M307.87 87.76L313.51 74.43L297.63 74.19L307.87 87.76Z"></path><path id="path896" class="shp53" d="M335.11 66.84L322.6 85.69L336.26 81.91L335.11 66.84Z"></path><path id="path898" class="shp5" d="M415.17 300.56L429.35 307.63L428.52 291.53L415.17 300.56Z"></path><path id="path900" class="shp27" d="M345.41 138.7L347.17 138.32L344.88 132.07L345.41 138.7Z"></path><path id="path902" class="shp174" d="M228.79 70.93L227.17 54.01L216.91 55.79L228.79 70.93Z"></path><path id="path904" class="shp0" d="M405.82 254.84L412.42 255.81L406.64 252.49L405.82 254.84Z"></path><path id="path906" class="shp34" d="M423.5 275.13L423.3 262.41L405.62 267.57L423.5 275.13Z"></path><path id="path908" class="shp0" d="M406.64 252.49L412.42 255.81L408.1 250.74L406.64 252.49Z"></path><path id="path910" class="shp32" d="M101.24 312.82L90.7 299.29L74.99 310.61L101.24 312.82Z"></path><path id="path912" class="shp177" d="M67.78 245.7L51.6 229.59L50.34 240.01L67.78 245.7Z"></path><path id="path914" class="shp0" d="M412.42 255.81L419.08 242.64L408.1 250.74L412.42 255.81Z"></path><path id="path916" class="shp44" d="M455.79 223.85L458.7 217.85L456.78 217.26L455.79 223.85Z"></path><path id="path918" class="shp44" d="M455.79 223.85L456.78 217.26L454.4 217.33L455.79 223.85L455.79 223.85Z"></path><path id="path920" class="shp44" d="M452.03 218.35L455.79 223.85L454.4 217.33L452.03 218.35Z"></path><path id="path922" class="shp178" d="M102.94 175.62L98.66 196.63L110.88 185.01L102.94 175.62Z"></path><path id="path924" class="shp44" d="M455.79 223.85L463.8 231.9L462.3 222.42L455.79 223.85Z"></path><path id="path926" class="shp87" d="M89.07 227.53L99.38 213.59L87.55 215.63L89.07 227.53Z"></path><path id="path928" class="shp35" d="M464.85 241.21L446.32 244.51L453.6 254.78L464.85 241.21Z"></path><path id="path930" class="shp35" d="M441.05 226.44L446.32 244.51L455.79 223.85L441.05 226.44Z"></path><path id="path932" class="shp166" d="M357.45 386.39L370.69 376.79L356.3 370.45L357.45 386.39Z"></path><path id="path934" class="shp27" d="M354.27 92.25L356.38 76.79L336.26 81.91L354.27 92.25Z"></path><path id="path936" class="shp52" d="M331.75 112.23L348.34 106.67L335.56 96.07L331.75 112.23Z"></path><path id="path938" class="shp44" d="M460.29 218.94L455.79 223.85L461.62 220.62L460.29 218.94Z"></path><path id="path940" class="shp175" d="M313.51 74.43L315.7 60.13L305.76 57.5L313.51 74.43Z"></path><path id="path942" class="shp44" d="M455.79 223.85L460.29 218.94L458.7 217.85L455.79 223.85Z"></path><path id="path944" class="shp44" d="M462.3 222.42L461.62 220.62L455.79 223.85L462.3 222.42Z"></path><path id="path946" class="shp168" d="M325.49 63.24L313.51 74.43L322.6 85.69L325.49 63.24Z"></path><path id="path948" class="shp27" d="M348.34 106.67L354.27 92.25L335.56 96.07L348.34 106.67Z"></path><path id="path950" class="shp0" d="M465.68 259.95L453.6 254.78L449.99 266.84L465.68 259.95Z"></path><path id="path952" class="shp35" d="M465.47 250.57L453.6 254.78L465.68 259.95L465.47 250.57Z"></path><path id="path954" class="shp149" d="M119.06 153.66L121.51 141.44L108.81 144.94L119.06 153.66Z"></path><path id="path956" class="shp27" d="M344.88 132.07L333.8 132.84L342 138.06L344.88 132.07Z"></path><path id="path958" class="shp80" d="M77.03 209.85L87.55 215.63L98.66 196.63L77.03 209.85Z"></path><path id="path960" class="shp27" d="M368.34 123.05L388.03 108.54L375.51 112.17L368.34 123.05Z"></path><path id="path962" class="shp27" d="M344.88 132.07L347.17 138.32L348.64 137.56L344.88 132.07Z"></path><path id="path964" class="shp110" d="M98.66 196.63L87.55 215.63L99.38 213.59L98.66 196.63Z"></path><path id="path966" class="shp27" d="M356.38 76.79L354.27 92.25L366.58 82.67L356.38 76.79Z"></path><path id="path968" class="shp58" d="M121.51 141.44L132.36 151.62L131.43 133.9L121.51 141.44Z"></path><path id="path970" class="shp27" d="M354.27 92.25L362.97 104.25L366.58 82.67L354.27 92.25Z"></path><path id="path972" class="shp179" d="M384.9 103.13L388.03 108.54L389.46 107.1L384.9 103.13Z"></path><path id="path974" class="shp85" d="M70.28 227.53L87.55 215.63L77.03 209.85L70.28 227.53Z"></path><path id="path976" class="shp179" d="M388.03 108.54L384.9 103.13L375.51 112.17L388.03 108.54Z"></path><path id="path978" class="shp52" d="M335.56 96.07L354.27 92.25L336.26 81.91L335.56 96.07Z"></path><path id="path980" class="shp179" d="M389.46 107.1L390.38 105.32L384.9 103.13L389.46 107.1Z"></path><path id="path982" class="shp180" d="M96.46 155.94L86.54 164.06L102.94 175.62L96.46 155.94Z"></path><path id="path984" class="shp36" d="M53.37 300.58L76.52 296.18L51.6 290.31L53.37 300.58Z"></path><path id="path986" class="shp59" d="M116.46 337.14L105.52 350.78L117.24 349.7L116.46 337.14Z"></path><path id="path988" class="shp85" d="M70.28 227.53L89.07 227.53L87.55 215.63L70.28 227.53L70.28 227.53Z"></path><path id="path990" class="shp179" d="M390.38 105.32L390.73 103.58L384.9 103.13L390.38 105.32Z"></path><path id="path992" class="shp175" d="M313.51 74.43L307.87 87.76L322.6 85.69L313.51 74.43Z"></path><path id="path994" class="shp179" d="M384.9 103.13L390.12 100.37L389.18 98.88L384.9 103.13Z"></path><path id="path996" class="shp82" d="M79.31 259.96L78.81 272.53L91.11 275.18L79.31 259.96Z"></path><path id="path998" class="shp179" d="M390.64 102.05L390.12 100.37L384.9 103.13L390.64 102.05Z"></path><path id="path1000" class="shp179" d="M390.64 102.05L384.9 103.13L390.73 103.58L390.64 102.05L390.64 102.05Z"></path><path id="path1002" class="shp55" d="M109.95 165.52L124.88 165.79L119.06 153.66L109.95 165.52Z"></path><path id="path1004" class="shp52" d="M335.56 96.07L322.6 85.69L321.73 100.05L335.56 96.07Z"></path><path id="path1006" class="shp179" d="M389.18 98.88L384.28 94.85L384.9 103.13L389.18 98.88Z"></path><path id="path1008" class="shp181" d="M97.56 372.94L84.19 375.06L89.94 383.26L97.56 372.94Z"></path><path id="path1010" class="shp55" d="M109.95 165.52L119.06 153.66L108.81 144.94L109.95 165.52Z"></path><path id="path1012" class="shp112" d="M297.63 74.19L293.73 92.34L307.87 87.76L297.63 74.19Z"></path><path id="path1014" class="shp160" d="M441.8 282.4L428.52 291.53L444.51 299.43L441.8 282.4Z"></path><path id="path1016" class="shp8" d="M395.95 313.14L408.32 325.05L408.94 312.02L395.95 313.14Z"></path><path id="path1018" class="shp181" d="M97.56 372.94L108.5 379.63L118.11 365.65L97.56 372.94Z"></path><path id="path1020" class="shp161" d="M339.62 400.42L357.45 386.39L337.4 384.83L339.62 400.42Z"></path><path id="path1022" class="shp182" d="M261.59 70.11L266.42 52L257.54 51.81L261.59 70.11Z"></path><path id="path1024" class="shp50" d="M214.52 427.01L200.37 432.82L212.74 442.82L214.52 427.01Z"></path><path id="path1026" class="shp2" d="M408.23 355.55L401.04 339.17L391.61 347L408.23 355.55Z"></path><path id="path1028" class="shp2" d="M436.25 366.57L417.71 367.45L430.89 375.06L436.25 366.57Z"></path><path id="path1030" class="shp2" d="M449.86 339.56L441.55 330.87L432.92 339.21L449.86 339.56Z"></path><path id="path1032" class="shp8" d="M453.53 330.08L440.75 318.89L441.55 330.87L453.53 330.08Z"></path><path id="path1034" class="shp25" d="M242.96 429.36L257.58 438.23L256.7 423.2L242.96 429.36Z"></path><path id="path1036" class="shp183" d="M244.54 407.66L228.31 420.54L242.96 429.36L244.54 407.66Z"></path><path id="path1038" class="shp2" d="M436.25 366.57L425.53 353.44L417.71 367.45L436.25 366.57Z"></path><path id="path1040" class="shp2" d="M441.21 357.82L432.92 339.21L425.53 353.44L441.21 357.82Z"></path><path id="path1042" class="shp138" d="M248.17 467.89L241.4 448.41L237.6 467.15L248.17 467.89Z"></path><path id="path1044" class="shp82" d="M257.58 438.23L242.96 429.36L241.4 448.41L257.58 438.23Z"></path><path id="path1046" class="shp184" d="M269.3 430L256.7 423.2L257.58 438.23L269.3 430Z"></path><path id="path1048" class="shp155" d="M265.16 408.03L255.35 408.2L256.7 423.2L265.16 408.03Z"></path><path id="path1050" class="shp98" d="M279.98 444.12L269.3 430L257.58 438.23L279.98 444.12Z"></path><path id="path1052" class="shp184" d="M269.3 430L282.69 424.93L274.81 407.22L269.3 430Z"></path><path id="path1054" class="shp61" d="M134.62 342.79L128.33 355.63L138.76 348.61L134.62 342.79Z"></path><path id="path1056" class="shp9" d="M118.11 365.65L128.33 355.63L117.24 349.7L118.11 365.65Z"></path><path id="path1058" class="shp68" d="M123.91 324.17L116.46 337.14L127.19 330.57L123.91 324.17Z"></path><path id="path1060" class="shp171" d="M101.39 339.76L116.46 337.14L109.14 326.9L101.39 339.76Z"></path><path id="path1062" class="shp185" d="M134.62 177.11L120.16 177.06L130.76 183.12L134.62 177.11L134.62 177.11Z"></path><path id="path1064" class="shp55" d="M109.95 165.52L120.16 177.06L124.88 165.79L109.95 165.52Z"></path><path id="path1066" class="shp170" d="M283.32 80.61L297.63 74.19L285.98 67.37L283.32 80.61Z"></path><path id="path1068" class="shp176" d="M269.13 87.27L283.32 80.61L273.37 65.07L269.13 87.27Z"></path><path id="path1070" class="shp64" d="M297.14 55.63L285.98 67.37L297.63 74.19L297.14 55.63Z"></path><path id="path1072" class="shp186" d="M276.74 52.7L285.98 67.37L286.98 53.91L276.74 52.7Z"></path><path id="path1074" class="shp187" d="M266.42 52L273.37 65.07L276.74 52.7L266.42 52Z"></path><path id="path1076" class="shp176" d="M273.37 65.07L261.59 70.11L269.13 87.27L273.37 65.07Z"></path><path id="path1078" class="shp176" d="M269.13 87.27L261.59 70.11L254.26 83.56L269.13 87.27Z"></path><path id="path1080" class="shp62" d="M254.26 83.56L261.59 70.11L245.17 69.89L254.26 83.56Z"></path><path id="path1082" class="shp187" d="M263.77 111.81L255.63 97.6L255.35 111.7L263.77 111.81L263.77 111.81Z"></path><path id="path1084" class="shp176" d="M269.13 87.27L254.26 83.56L255.63 97.6L269.13 87.27Z"></path><path id="path1086" class="shp182" d="M257.54 51.81L245.17 69.89L261.59 70.11L257.54 51.81Z"></path><path id="path1088" class="shp26" d="M237.6 52.75L245.17 69.89L248.17 52.01L237.6 52.75Z"></path><path id="path1090" class="shp47" d="M223.53 87.08L237.63 80.74L228.79 70.93L223.53 87.08Z"></path><path id="path1092" class="shp62" d="M254.26 83.56L237.63 80.74L242.27 93.1L254.26 83.56Z"></path><path id="path1094" class="shp188" d="M66.15 215.83L77.03 209.85L70.8 199.11L66.15 215.83Z"></path><path id="path1096" class="shp189" d="M53.37 219.32L66.15 215.83L55.64 209.24L53.37 219.32Z"></path><path id="path1098" class="shp180" d="M96.46 155.94L102.94 175.62L109.95 165.52L96.46 155.94Z"></path><path id="path1100" class="shp110" d="M98.66 196.63L102.94 175.62L90.66 176.2L98.66 196.63Z"></path><path id="path1102" class="shp3" d="M87.16 348.08L101.39 339.76L85 328.07L87.16 348.08Z"></path><path id="path1104" class="shp68" d="M69.33 348.81L73.87 357.82L87.16 348.08L69.33 348.81Z"></path><path id="path1106" class="shp171" d="M101.39 339.76L109.14 326.9L96.93 324.5L101.39 339.76Z"></path><path id="path1108" class="shp6" d="M85 328.07L74.99 310.61L72.8 323.47L85 328.07Z"></path><path id="path1110" class="shp24" d="M74.99 310.61L96.93 324.5L101.24 312.82L74.99 310.61Z"></path><path id="path1112" class="shp171" d="M101.39 339.76L96.93 324.5L85 328.07L101.39 339.76Z"></path><path id="path1114" class="shp3" d="M87.16 348.08L105.52 350.78L101.39 339.76L87.16 348.08Z"></path><path id="path1116" class="shp9" d="M118.11 365.65L105.52 350.78L98.39 360.14L118.11 365.65Z"></path><path id="path1118" class="shp36" d="M76.52 296.18L90.7 299.29L97.78 287.36L76.52 296.18Z"></path><path id="path1120" class="shp36" d="M76.52 296.18L71.32 282.64L51.6 290.31L76.52 296.18Z"></path><path id="path1122" class="shp190" d="M64.78 265.67L78.81 272.53L79.31 259.96L64.78 265.67Z"></path><path id="path1124" class="shp191" d="M71.32 282.64L91.11 275.18L78.81 272.53L71.32 282.64Z"></path><path id="path1126" class="shp177" d="M67.78 245.7L60.48 254.82L79.31 259.96L67.78 245.7Z"></path><path id="path1128" class="shp190" d="M64.78 265.67L49.6 269.32L50.34 279.89L64.78 265.67Z"></path><path id="path1130" class="shp192" d="M84.19 144.84L78.83 153.33L96.46 155.94L84.19 144.84Z"></path><path id="path1132" class="shp193" d="M78.83 153.33L73.87 162.08L86.54 164.06L78.83 153.33Z"></path><path id="path1134" class="shp162" d="M173.56 103.81L160.45 89.73L162.66 109.22L173.56 103.81Z"></path><path id="path1136" class="shp71" d="M134.23 92.36L151.51 98.84L142.43 86.6L134.23 92.36Z"></path><path id="path1138" class="shp162" d="M159.67 76.28L160.45 89.73L173.07 91.66L159.67 76.28Z"></path><path id="path1140" class="shp194" d="M150.92 81.24L151.51 98.84L160.45 89.73L150.92 81.24Z"></path><path id="path1142" class="shp118" d="M184.24 81.41L193.39 93.5L198.72 79.95L184.24 81.41Z"></path><path id="path1144" class="shp125" d="M168.68 71.74L184.24 81.41L177.93 67.63L168.68 71.74Z"></path><path id="path1146" class="shp128" d="M208.62 91.06L198.72 79.95L193.39 93.5L208.62 91.06Z"></path><path id="path1148" class="shp70" d="M196.93 60.8L198.72 79.95L212.14 74.32L196.93 60.8Z"></path><path id="path1150" class="shp164" d="M296.76 436.71L279.98 444.12L292.89 450.64L296.76 436.71Z"></path><path id="path1152" class="shp93" d="M300.91 418.74L296.76 436.71L313.55 429.32L300.91 418.74Z"></path><path id="path1154" class="shp0" d="M423.3 262.41L435.81 260.12L433.48 247.21L423.3 262.41Z"></path><path id="path1156" class="shp34" d="M405.62 267.57L423.3 262.41L412.42 255.81L405.62 267.57Z"></path><path id="path1158" class="shp160" d="M451.46 289.59L449.99 266.84L441.8 282.4L451.46 289.59Z"></path><path id="path1160" class="shp0" d="M423.3 262.41L435.25 272.22L435.81 260.12L423.3 262.41Z"></path><path id="path1162" class="shp0" d="M465.68 259.95L449.99 266.84L465.48 269.32L465.68 259.95Z"></path><path id="path1164" class="shp0" d="M435.81 260.12L435.25 272.22L449.99 266.84L435.81 260.12Z"></path><path id="path1166" class="shp9" d="M141.39 414.66L152.34 404.79L137.72 400.38L141.39 414.66Z"></path><path id="path1168" class="shp195" d="M169.98 403.21L157.24 419.26L177.65 419.16L169.98 403.21L169.98 403.21Z"></path><path id="path1170" class="shp18" d="M126.32 421.41L141.39 414.66L137.72 400.38L126.32 421.41Z"></path><path id="path1172" class="shp9" d="M141.39 414.66L134.23 427.54L142.43 433.3L141.39 414.66Z"></path><path id="path1174" class="shp1" d="M185.87 389.72L169.98 403.21L187.19 407.34L185.87 389.72Z"></path><path id="path1176" class="shp196" d="M177.68 384.83L168.88 378.73L165.94 391.12L177.68 384.83Z"></path><path id="path1178" class="shp121" d="M151.51 98.84L153.09 116.48L162.66 109.22L151.51 98.84Z"></path><path id="path1180" class="shp197" d="M131.43 133.9L153.09 116.48L142.37 111.03L131.43 133.9Z"></path><path id="path1182" class="shp57" d="M182.76 131.95L171.56 124.49L173.71 137.71L182.76 131.95Z"></path><path id="path1184" class="shp120" d="M162.66 109.22L171.56 124.49L180.03 114.12L162.66 109.22Z"></path><path id="path1186" class="shp120" d="M162.66 109.22L180.03 114.12L173.56 103.81L162.66 109.22Z"></path><path id="path1188" class="shp124" d="M190.79 106.45L173.56 103.81L180.03 114.12L190.79 106.45Z"></path><path id="path1190" class="shp2" d="M408.23 355.55L391.61 347L390.49 359.21L408.23 355.55Z"></path><path id="path1192" class="shp8" d="M386.14 333.69L391.61 347L401.04 339.17L386.14 333.69Z"></path><path id="path1194" class="shp75" d="M196.93 459.1L192.35 443.52L187.41 455.94L196.93 459.1Z"></path><path id="path1196" class="shp51" d="M200.37 432.82L181.52 435.69L192.35 443.52L200.37 432.82Z"></path><path id="path1198" class="shp16" d="M84.19 375.06L97.56 372.94L98.39 360.14L84.19 375.06Z"></path><path id="path1200" class="shp9" d="M89.94 383.26L108.5 379.63L97.56 372.94L89.94 383.26Z"></path><path id="path1202" class="shp132" d="M240.27 112.68L231.42 100.63L232.54 113.79L240.27 112.68Z"></path><path id="path1204" class="shp47" d="M223.53 87.08L231.42 100.63L242.27 93.1L223.53 87.08Z"></path><path id="path1206" class="shp50" d="M214.52 427.01L212.74 442.82L227.09 435.73L214.52 427.01Z"></path><path id="path1208" class="shp39" d="M216.91 464.11L227.17 465.89L226.5 450.81L216.91 464.11Z"></path><path id="path1210" class="shp198" d="M192.35 443.52L212.74 442.82L200.37 432.82L192.35 443.52Z"></path><path id="path1212" class="shp39" d="M216.91 464.11L212.74 442.82L206.83 461.85L216.91 464.11Z"></path><path id="path1214" class="shp139" d="M266.9 467.89L255.68 453.16L257.54 468.1L266.9 467.89Z"></path><path id="path1216" class="shp82" d="M257.58 438.23L241.4 448.41L255.68 453.16L257.58 438.23Z"></path><path id="path1218" class="shp33" d="M58.39 320.56L72.8 323.47L74.99 310.61L58.39 320.56Z"></path><path id="path1220" class="shp41" d="M65.21 339.56L72.8 323.47L61.55 330.08L65.21 339.56Z"></path><path id="path1222" class="shp68" d="M69.33 348.81L78.08 338.94L65.21 339.56L69.33 348.81Z"></path><path id="path1224" class="shp3" d="M87.16 348.08L85 328.07L78.08 338.94L87.16 348.08Z"></path><path id="path1226" class="shp178" d="M102.94 175.62L86.54 164.06L90.66 176.2L102.94 175.62Z"></path><path id="path1228" class="shp193" d="M78.83 153.33L86.54 164.06L96.46 155.94L78.83 153.33Z"></path><path id="path1230" class="shp140" d="M287.9 465.89L292.89 450.64L279.98 444.12L287.9 465.89Z"></path><path id="path1232" class="shp199" d="M308.25 461.85L292.89 450.64L298.16 464.11L308.25 461.85Z"></path><path id="path1234" class="shp136" d="M313.55 429.32L296.76 436.71L310.44 445.04L313.55 429.32Z"></path><path id="path1236" class="shp147" d="M310.44 445.04L296.76 436.71L292.89 450.64L310.44 445.04Z"></path><path id="path1238" class="shp81" d="M152.34 404.79L165.94 391.12L153.3 389.55L152.34 404.79Z"></path><path id="path1240" class="shp196" d="M177.68 384.83L165.94 391.12L169.98 403.21L177.68 384.83Z"></path><path id="path1242" class="shp141" d="M277.48 467.15L269.83 454.02L266.9 467.89L277.48 467.15Z"></path><path id="path1244" class="shp82" d="M257.58 438.23L269.83 454.02L279.98 444.12L257.58 438.23Z"></path><path id="path1246" class="shp38" d="M97.78 287.36L90.7 299.29L113.94 296.96L97.78 287.36Z"></path><path id="path1248" class="shp29" d="M110.27 277.22L97.78 287.36L111.17 283.72L110.27 277.22Z"></path><path id="path1250" class="shp170" d="M283.32 80.61L279.72 98.07L293.73 92.34L283.32 80.61Z"></path><path id="path1252" class="shp176" d="M269.13 87.27L255.63 97.6L279.72 98.07L269.13 87.27Z"></path><path id="path1254" class="shp13" d="M125.46 379.83L108.5 379.63L111.38 391.01L125.46 379.83Z"></path><path id="path1256" class="shp13" d="M118.72 414.92L122.12 395.75L110.43 407.06L118.72 414.92Z"></path><path id="path1258" class="shp10" d="M110.43 407.06L111.38 391.01L102.57 398.77L110.43 407.06Z"></path><path id="path1260" class="shp13" d="M125.46 379.83L111.38 391.01L122.12 395.75L125.46 379.83Z"></path><path id="path1262" class="shp0" d="M404.65 407.06L386.33 402.08L396.36 414.92L404.65 407.06Z"></path><path id="path1264" class="shp95" d="M369.73 391.43L386.33 402.08L383.4 386.06L369.73 391.43Z"></path><path id="path1266" class="shp5" d="M408.5 384.29L412.5 398.77L419 391.17L408.5 384.29Z"></path><path id="path1268" class="shp7" d="M403.47 372.79L383.4 386.06L398.3 391.61L403.47 372.79Z"></path><path id="path1270" class="shp8" d="M425.13 383.26L408.5 384.29L419 391.17L425.13 383.26Z"></path><path id="path1272" class="shp7" d="M403.47 372.79L398.3 391.61L408.5 384.29L403.47 372.79Z"></path><path id="path1274" class="shp72" d="M60.48 254.82L50.34 240.01L49.6 250.58L60.48 254.82Z"></path><path id="path1276" class="shp200" d="M80.72 239.3L79.31 259.96L94.42 243.83L80.72 239.3Z"></path><path id="path1278" class="shp85" d="M70.28 227.53L80.72 239.3L89.07 227.53L70.28 227.53L70.28 227.53Z"></path><path id="path1280" class="shp82" d="M79.31 259.96L80.72 239.3L67.78 245.7L79.31 259.96Z"></path><path id="path1282" class="shp73" d="M49.39 259.95L60.48 254.82L49.6 250.58L49.39 259.95Z"></path><path id="path1284" class="shp82" d="M79.31 259.96L60.48 254.82L64.78 265.67L79.31 259.96Z"></path><path id="path1286" class="shp94" d="M78.59 179.51L80.86 191.82L90.66 176.2L78.59 179.51Z"></path><path id="path1288" class="shp201" d="M61.55 189.82L80.86 191.82L65.21 180.34L61.55 189.82Z"></path><path id="path1290" class="shp202" d="M86.54 164.06L78.59 179.51L90.66 176.2L86.54 164.06Z"></path><path id="path1292" class="shp203" d="M65.21 180.34L78.59 179.51L69.33 171.09L65.21 180.34Z"></path><path id="path1294" class="shp80" d="M77.03 209.85L80.86 191.82L70.8 199.11L77.03 209.85Z"></path><path id="path1296" class="shp201" d="M61.55 189.82L70.8 199.11L80.86 191.82L61.55 189.82Z"></path><path id="path1298" class="shp197" d="M131.43 133.9L126.55 118.8L115.72 130.41L131.43 133.9Z"></path><path id="path1300" class="shp204" d="M96.08 128.73L115.72 130.41L102.57 121.13L96.08 128.73Z"></path><path id="path1302" class="shp197" d="M131.43 133.9L115.72 130.41L121.51 141.44L131.43 133.9Z"></path><path id="path1304" class="shp101" d="M108.81 144.94L121.51 141.44L115.72 130.41L108.81 144.94Z"></path><path id="path1306" class="shp197" d="M131.43 133.9L142.37 111.03L126.55 118.8L131.43 133.9Z"></path><path id="path1308" class="shp205" d="M126.32 98.49L126.55 118.8L142.37 111.03L126.32 98.49Z"></path><path id="path1310" class="shp206" d="M168.68 448.16L167.29 430.56L159.67 443.62L168.68 448.16Z"></path><path id="path1312" class="shp66" d="M177.65 419.16L167.29 430.56L181.52 435.69L177.65 419.16Z"></path><path id="path1314" class="shp0" d="M435.81 260.12L449.99 266.84L453.6 254.78L435.81 260.12Z"></path><path id="path1316" class="shp44" d="M463.8 231.9L446.32 244.51L464.85 241.21L463.8 231.9Z"></path><path id="path1318" class="shp35" d="M419.08 242.64L433.48 247.21L430.06 234.54L419.08 242.64Z"></path><path id="path1320" class="shp0" d="M435.81 260.12L446.32 244.51L433.48 247.21L435.81 260.12Z"></path><path id="path1322" class="shp35" d="M464.85 241.21L453.6 254.78L465.47 250.57L464.85 241.21Z"></path><path id="path1324" class="shp0" d="M435.81 260.12L453.6 254.78L446.32 244.51L435.81 260.12Z"></path><path id="path1326" class="shp157" d="M361.33 420.48L345.08 415.19L344.22 431.59L361.33 420.48Z"></path><path id="path1328" class="shp156" d="M380.85 427.54L361.33 420.48L372.64 433.3L380.85 427.54Z"></path><path id="path1330" class="shp146" d="M444.51 299.43L429.35 307.63L440.75 318.89L444.51 299.43Z"></path><path id="path1332" class="shp160" d="M451.46 289.59L461.7 300.58L463.47 290.31L451.46 289.59Z"></path><path id="path1334" class="shp34" d="M464.74 279.89L451.46 289.59L463.47 290.31L464.74 279.89Z"></path><path id="path1336" class="shp160" d="M441.8 282.4L444.51 299.43L451.46 289.59L441.8 282.4Z"></path></g></g></g></g></g><g id="g1338"><g id="Clip-Path: g1340" clip-path="url(#cp9)"><g id="g1340"><g id="g1346"><path id="path1348" class="shp0" d="M416.97 136.77C426.49 149.07 434.62 162.49 441.12 176.82L257.54 312.12L180.84 264.03L180.84 206.19L257.54 254.27L416.97 136.77Z"></path></g></g></g></g></g></svg> 